<?xml version="1.0" standalone="no"?>
<!DOCTYPE svg PUBLIC "-//W3C//DTD SVG 20010904//EN"
 "http://www.w3.org/TR/2001/REC-SVG-20010904/DTD/svg10.dtd">
<svg version="1.0" xmlns="http://www.w3.org/2000/svg"
 width="65.000000pt" height="65.000000pt" viewBox="0 0 65.000000 65.000000"
 preserveAspectRatio="xMidYMid meet">
<metadata>
Created by potrace 1.15, written by Peter Selinger 2001-2017
</metadata>
<g transform="translate(0.000000,65.000000) scale(0.100000,-0.100000)"
fill="#fff" stroke="none">
<path d="M103 528 c4 -29 14 -132 23 -228 9 -96 17 -177 19 -178 2 -2 18 -5
36 -5 29 -2 33 2 41 32 5 19 8 61 6 93 -3 50 -1 58 16 60 13 2 23 18 32 48 8
25 14 46 14 48 0 1 -18 2 -40 2 l-40 0 0 40 0 40 49 0 c53 0 52 -1 66 68 l7
32 -118 0 -117 0 6 -52z"/>
<path d="M357 548 c-3 -18 -8 -41 -12 -50 -6 -16 -1 -18 44 -18 l51 0 0 -40 0
-40 -60 0 -59 0 -10 -37 c-18 -62 -17 -63 52 -63 l62 0 -3 -50 c-4 -49 -5 -50
-45 -61 -23 -6 -58 -8 -78 -5 -36 6 -37 5 -43 -30 -4 -19 -9 -41 -12 -47 -3
-8 13 -18 39 -25 39 -12 51 -11 103 6 33 11 74 23 92 26 17 4 32 11 32 14 0
10 28 306 36 385 l7 67 -95 0 -95 0 -6 -32z"/>
</g>
</svg>
